<svg id="Group_62" data-name="Group 62" xmlns="http://www.w3.org/2000/svg" width="26" height="26" viewBox="0 0 26 26">
  <path id="Path_249" data-name="Path 249" d="M-199.328-121.456c3.471,0,3.882.013,5.253.076a7.193,7.193,0,0,1,2.414.448,4.028,4.028,0,0,1,1.495.972,4.028,4.028,0,0,1,.972,1.495,7.192,7.192,0,0,1,.448,2.414c.063,1.371.076,1.782.076,5.253s-.013,3.882-.076,5.253a7.192,7.192,0,0,1-.448,2.414,4.028,4.028,0,0,1-.972,1.495,4.027,4.027,0,0,1-1.495.972,7.193,7.193,0,0,1-2.414.448c-1.371.063-1.782.076-5.253.076s-3.882-.013-5.253-.076a7.193,7.193,0,0,1-2.414-.448,4.028,4.028,0,0,1-1.495-.972,4.028,4.028,0,0,1-.972-1.495,7.193,7.193,0,0,1-.448-2.414c-.063-1.371-.076-1.782-.076-5.253s.013-3.882.076-5.253a7.194,7.194,0,0,1,.448-2.414,4.028,4.028,0,0,1,.972-1.495,4.028,4.028,0,0,1,1.495-.972,7.193,7.193,0,0,1,2.414-.448c1.371-.063,1.782-.076,5.253-.076m0-2.342c-3.531,0-3.973.015-5.36.078a9.54,9.54,0,0,0-3.156.6,6.372,6.372,0,0,0-2.3,1.5,6.373,6.373,0,0,0-1.5,2.3,9.543,9.543,0,0,0-.6,3.156c-.063,1.387-.078,1.829-.078,5.36s.015,3.973.078,5.36a9.543,9.543,0,0,0,.6,3.156,6.373,6.373,0,0,0,1.5,2.3,6.373,6.373,0,0,0,2.3,1.5,9.543,9.543,0,0,0,3.156.6c1.387.063,1.829.078,5.36.078s3.973-.015,5.36-.078a9.543,9.543,0,0,0,3.156-.6,6.373,6.373,0,0,0,2.3-1.5,6.372,6.372,0,0,0,1.5-2.3,9.541,9.541,0,0,0,.6-3.156c.063-1.387.078-1.829.078-5.36s-.015-3.973-.078-5.36a9.541,9.541,0,0,0-.6-3.156,6.372,6.372,0,0,0-1.5-2.3,6.372,6.372,0,0,0-2.3-1.5,9.54,9.54,0,0,0-3.156-.6c-1.387-.063-1.829-.078-5.36-.078Z" transform="translate(212.328 123.798)" fill="#fff"/>
  <path id="Path_250" data-name="Path 250" d="M-83.1-1.242a6.676,6.676,0,0,0-6.676,6.676A6.676,6.676,0,0,0-83.1,12.109a6.676,6.676,0,0,0,6.676-6.676A6.676,6.676,0,0,0-83.1-1.242Zm0,11.009A4.333,4.333,0,0,1-87.43,5.434,4.333,4.333,0,0,1-83.1,1.1a4.333,4.333,0,0,1,4.333,4.333A4.333,4.333,0,0,1-83.1,9.767Z" transform="translate(96.096 7.566)" fill="#fff"/>
  <ellipse id="Ellipse_6" data-name="Ellipse 6" cx="1.56" cy="1.56" rx="1.56" ry="1.56" transform="translate(18.379 4.501)" fill="#fff"/>
</svg>
