<svg xmlns="http://www.w3.org/2000/svg" width="31.227" height="26.926" viewBox="0 0 31.227 26.926">
  <g id="Group_503" data-name="Group 503" transform="translate(-168.082 -309.42)">
    <path id="Path_303" data-name="Path 303" d="M189.777,318.274a11.079,11.079,0,0,0-7.466,3.015,8.866,8.866,0,0,0-2.754,7.511c-1.133-.14-2.165-.295-3.2-.382a1.991,1.991,0,0,0-1.087.184c-1.008.569-1.974,1.211-3.119,1.927.21-.95.346-1.782.587-2.583a.982.982,0,0,0-.447-1.3c-3.48-2.457-4.947-6.133-3.849-9.919a9.819,9.819,0,0,1,6.9-6.733,11.565,11.565,0,0,1,12.636,3.7A8.655,8.655,0,0,1,189.777,318.274Zm-13.341-1.179a1.336,1.336,0,0,0-1.286-1.337,1.3,1.3,0,0,0-1.351,1.255,1.283,1.283,0,0,0,1.271,1.331A1.32,1.32,0,0,0,176.436,317.095Zm6.961-1.337a1.338,1.338,0,0,0-1.307,1.317,1.3,1.3,0,0,0,1.341,1.275,1.3,1.3,0,1,0-.034-2.593Z" transform="translate(0 0)" fill="#fff"/>
    <path id="Path_304" data-name="Path 304" d="M289.08,409.327a9.845,9.845,0,0,0-2.656-1.116,14.852,14.852,0,0,0-2.766.517,9.243,9.243,0,0,1-7.5-2.446c-4-3.7-3.427-9.368,1.2-12.4,4.111-2.693,10.141-1.8,13.039,1.942a7.406,7.406,0,0,1-.856,10.33c-.894.793-1.215,1.445-.642,2.491A2.972,2.972,0,0,1,289.08,409.327Zm-10.448-10.116a1.08,1.08,0,1,0,.008-2.16,1.08,1.08,0,1,0-.008,2.16Zm6.735-2.158a1.081,1.081,0,0,0-1.072,1.033,1.066,1.066,0,1,0,1.072-1.033Z" transform="translate(-92.79 -72.981)" fill="#fff"/>
  </g>
</svg>
