<svg id="Group_63" data-name="Group 63" xmlns="http://www.w3.org/2000/svg" width="28.528" height="22.965" viewBox="0 0 28.528 22.965">
  <path id="Path_251" data-name="Path 251" d="M365.533,276.264c.122,1.59-.146,3.5-1.2,3.588-1.714.153-.82-1.735-.8-2.871a5.548,5.548,0,0,0-5.5-5.581c-.781,0-2.592.528-2.313-1.117.126-.725.74-.715,1.356-.8A7.266,7.266,0,0,1,365.533,276.264Z" transform="translate(-337.032 -269.41)" fill="#fff"/>
  <path id="Path_252" data-name="Path 252" d="M130.315,318.283c1.991,1.089,4.383,1.631,3.987,4.865a6.177,6.177,0,0,1-1.036,2.471c-3.366,4.711-13.516,6.691-19.855,3.111-2.126-1.2-4.326-2.959-3.986-6.46.292-3.013,2.318-5.347,4.306-7.335a13.994,13.994,0,0,1,6.618-4.067c2.953-.743,3.825,1.719,3.03,4.146,1.71-.115,5.335-2.024,6.937-.159C131.022,315.675,130.751,317.147,130.315,318.283Zm-2.153,7.654a4.8,4.8,0,0,0,1.275-3.109c-.008-3.962-5-5.426-8.93-5.1a11.084,11.084,0,0,0-5.1,1.516,5.873,5.873,0,0,0-3.03,3.667c-.806,3.978,3.52,5.848,6.7,6.06C122.744,329.214,126.418,327.918,128.163,325.937Z" transform="translate(-109.39 -307.601)" fill="#fff"/>
  <path id="Path_253" data-name="Path 253" d="M372.678,323.735c.167,1.214-.18,2.267-.877,2.313-1.162.077-.727-.8-.8-1.834a2.179,2.179,0,0,0-1.037-1.6c-.908-.425-2.312.31-2.312-.957,0-.94.815-.842,1.276-.877A3.43,3.43,0,0,1,372.678,323.735Z" transform="translate(-348.085 -316.881)" fill="#fff"/>
  <path id="Path_254" data-name="Path 254" d="M200.789,434.56c1.7,5.134-7.153,7.522-8.771,3.11-1.083-2.951,1.518-5.3,4.226-5.581A4.1,4.1,0,0,1,200.789,434.56Zm-4.067.877a.6.6,0,0,0,1.116-.318C197.752,434.547,196.715,434.632,196.722,435.438Zm-1.436,2.712c1.488-.354,1.688-3.157-.558-2.632C192.842,435.959,193.207,438.644,195.287,438.15Z" transform="translate(-185.525 -419.733)" fill="#fff"/>
</svg>
