<svg id="Group_65" data-name="Group 65" xmlns="http://www.w3.org/2000/svg" width="137.286" height="24.577" viewBox="0 0 137.286 24.577">
  <path id="Path_255" data-name="Path 255" d="M117.082,376.2h-3.188v6.956h0v1.449h6.376V383.16h-3.184Z" transform="translate(-110.126 -376.204)" fill="#fff"/>
  <path id="Path_256" data-name="Path 256" d="M105.235,376.2h-3.188v10.433h10.139v-1.449h-6.951Z" transform="translate(-102.047 -376.204)" fill="#fff"/>
  <path id="Path_257" data-name="Path 257" d="M113.894,417.239h0v1.449h0v6.956h3.188v-6.956h3.184v-1.449h-6.372Z" transform="translate(-110.126 -404.199)" fill="#fff"/>
  <path id="Path_258" data-name="Path 258" d="M105.235,410.855h-3.188v10.433h3.188v-8.983h6.951v-1.449h-6.951Z" transform="translate(-102.047 -399.844)" fill="#fff"/>
  <path id="Path_259" data-name="Path 259" d="M142.148,384.609h0V383.16h0V376.2H138.96v6.956h-3.184v1.449h6.372Z" transform="translate(-125.058 -376.204)" fill="#fff"/>
  <path id="Path_260" data-name="Path 260" d="M142.727,376.2v8.983h-6.951v1.449h10.139V376.2Z" transform="translate(-125.058 -376.204)" fill="#fff"/>
  <path id="Path_261" data-name="Path 261" d="M138.96,417.239h-3.184v1.449h3.184v6.956h3.188v-6.956h0v-1.449H138.96Z" transform="translate(-125.058 -404.199)" fill="#fff"/>
  <path id="Path_262" data-name="Path 262" d="M142.727,410.856h-6.951v1.449h6.951v8.983h3.188V410.855h-3.188Z" transform="translate(-125.058 -399.843)" fill="#fff"/>
  <path id="Path_263" data-name="Path 263" d="M425.008,421.3V410.874h3.072v8.279h4.608V421.3Z" transform="translate(-322.377 -399.856)" fill="#fff"/>
  <path id="Path_264" data-name="Path 264" d="M456.147,423.041c-.039,0-.1,0-.181-.006s-.14-.01-.187-.01a3.021,3.021,0,0,0-1.5.3.968.968,0,0,0-.5.886.937.937,0,0,0,.3.722,1.072,1.072,0,0,0,.765.281,1.165,1.165,0,0,0,1-.456,2.286,2.286,0,0,0,.335-1.36c0-.1,0-.166,0-.214a.793.793,0,0,0-.02-.143m.129,3.624c-.017-.114-.03-.262-.047-.438s-.031-.383-.052-.623a2.219,2.219,0,0,1-.988.915,3.458,3.458,0,0,1-1.533.321,2.742,2.742,0,0,1-1.931-.67,2.2,2.2,0,0,1-.646-1.76,2.154,2.154,0,0,1,1.02-2.054,6.2,6.2,0,0,1,3.25-.691c.216,0,.378,0,.49,0s.211.007.308.011v-.445a1.321,1.321,0,0,0-.245-.851.84.84,0,0,0-.693-.3.914.914,0,0,0-.692.283,1.026,1.026,0,0,0-.268.734v.135h-2.726a2.159,2.159,0,0,1,.938-1.884,5.119,5.119,0,0,1,2.8-.614,4.5,4.5,0,0,1,2.808.675,2.847,2.847,0,0,1,.828,2.319v4.934Z" transform="translate(-340.163 -405.221)" fill="#fff"/>
  <path id="Path_265" data-name="Path 265" d="M478.995,426.664v-7.74h2.779l.03,1.105a2.45,2.45,0,0,1,1.008-.944,3.054,3.054,0,0,1,1.463-.35,2.9,2.9,0,0,1,2.149.741,2.966,2.966,0,0,1,.733,2.17v5.017h-2.852v-3.949a3.726,3.726,0,0,0-.266-1.722.97.97,0,0,0-.908-.437,1.134,1.134,0,0,0-.946.426,1.91,1.91,0,0,0-.337,1.208v4.474Z" transform="translate(-359.208 -405.22)" fill="#fff"/>
  <path id="Path_266" data-name="Path 266" d="M510.009,417.4a3.592,3.592,0,0,0,.344,1.779,1.139,1.139,0,0,0,1.05.578,1.168,1.168,0,0,0,1.031-.628,4.061,4.061,0,0,0-.007-3.469,1.226,1.226,0,0,0-1.091-.617,1.068,1.068,0,0,0-.985.6,3.623,3.623,0,0,0-.341,1.756m2.87,3.9-.032-1.018a3.155,3.155,0,0,1-2.6,1.2,2.854,2.854,0,0,1-2.379-1.065,4.7,4.7,0,0,1-.844-2.994,4.62,4.62,0,0,1,.862-3.011,3.026,3.026,0,0,1,2.482-1.045,3.265,3.265,0,0,1,1.362.276,2.792,2.792,0,0,1,1.032.792v-3.566h2.855V421.3Z" transform="translate(-378.326 -399.856)" fill="#fff"/>
  <path id="Path_267" data-name="Path 267" d="M185.355,417.318V421.3h-3.073V410.874h3.073v4.118h3.682v-4.118h3.073V421.3h-3.073v-3.983Z" transform="translate(-156.785 -399.856)" fill="#fff"/>
  <path id="Path_268" data-name="Path 268" d="M218.43,422.746a3.97,3.97,0,0,0,.338,1.891,1.338,1.338,0,0,0,2.2,0,3.872,3.872,0,0,0,.344-1.892,3.93,3.93,0,0,0-.344-1.9,1.329,1.329,0,0,0-2.2,0,3.947,3.947,0,0,0-.343,1.9m-3.006.015a3.885,3.885,0,0,1,1.157-3.011,5.652,5.652,0,0,1,6.59,0,4.507,4.507,0,0,1,0,6.031,5.643,5.643,0,0,1-6.59,0,3.9,3.9,0,0,1-1.157-3.014" transform="translate(-179.395 -405.187)" fill="#fff"/>
  <path id="Path_269" data-name="Path 269" d="M303.922,421.3V410.874h2.823v6.1l2.5-3.41H312.3l-2.487,3.486,2.764,4.254h-3.283l-2.547-4.194V421.3Z" transform="translate(-239.77 -399.856)" fill="#fff"/>
  <path id="Path_270" data-name="Path 270" d="M333.165,422.746a3.952,3.952,0,0,0,.339,1.891,1.338,1.338,0,0,0,2.2,0,3.917,3.917,0,0,0,.34-1.892,3.975,3.975,0,0,0-.34-1.9,1.33,1.33,0,0,0-2.2,0,3.932,3.932,0,0,0-.343,1.9m-3.005.015a3.874,3.874,0,0,1,1.157-3.011,5.653,5.653,0,0,1,6.59,0,4.512,4.512,0,0,1,0,6.031,5.645,5.645,0,0,1-6.59,0,3.888,3.888,0,0,1-1.157-3.014" transform="translate(-257.67 -405.187)" fill="#fff"/>
  <path id="Path_271" data-name="Path 271" d="M391.27,422.512a3.022,3.022,0,0,0,.35,1.625,1.14,1.14,0,0,0,1.036.554,1.172,1.172,0,0,0,1.034-.573,2.946,2.946,0,0,0,.373-1.605,2.986,2.986,0,0,0-.364-1.6,1.13,1.13,0,0,0-1.014-.571,1.187,1.187,0,0,0-1.064.543,3.032,3.032,0,0,0-.352,1.631m3.017-3.621h2.594V426a4.7,4.7,0,0,1-.228,1.642,2.548,2.548,0,0,1-.759,1.038,4.152,4.152,0,0,1-1.526.814,7.185,7.185,0,0,1-2.053.271,4.283,4.283,0,0,1-2.623-.719,2.381,2.381,0,0,1-.984-1.963l2.667,0v.05a.852.852,0,0,0,.332.686,1.306,1.306,0,0,0,.859.269,1.466,1.466,0,0,0,1.173-.425,2.036,2.036,0,0,0,.369-1.35v-.987a2.757,2.757,0,0,1-1.046.817,3.466,3.466,0,0,1-1.409.275,3.12,3.12,0,0,1-2.48-.99,4.235,4.235,0,0,1-.862-2.867,4.32,4.32,0,0,1,.853-2.849,2.937,2.937,0,0,1,2.384-1.019,3.539,3.539,0,0,1,1.515.3,3.212,3.212,0,0,1,1.153.946Z" transform="translate(-297.341 -405.187)" fill="#fff"/>
  <path id="Path_272" data-name="Path 272" d="M360.48,426.664v-7.74h2.779l.03,1.105a2.45,2.45,0,0,1,1.009-.944,3.055,3.055,0,0,1,1.461-.35,2.9,2.9,0,0,1,2.152.741,2.97,2.97,0,0,1,.733,2.17v5.017h-2.854v-3.949a3.755,3.755,0,0,0-.263-1.722.975.975,0,0,0-.91-.437,1.135,1.135,0,0,0-.946.426,1.905,1.905,0,0,0-.336,1.208v4.474Z" transform="translate(-278.355 -405.22)" fill="#fff"/>
  <path id="Path_273" data-name="Path 273" d="M245.661,426.618v-7.741h2.779l.029,1.1a2.485,2.485,0,0,1,1.01-.942,3.054,3.054,0,0,1,1.46-.35,2.906,2.906,0,0,1,2.151.74,2.963,2.963,0,0,1,.734,2.171v5.019h-2.853v-3.947a3.761,3.761,0,0,0-.265-1.726.974.974,0,0,0-.911-.436,1.134,1.134,0,0,0-.944.425,1.919,1.919,0,0,0-.337,1.209v4.474Z" transform="translate(-200.023 -405.187)" fill="#fff"/>
  <path id="Path_274" data-name="Path 274" d="M276.573,422.512a3.04,3.04,0,0,0,.349,1.625,1.144,1.144,0,0,0,1.036.554,1.173,1.173,0,0,0,1.036-.573,2.952,2.952,0,0,0,.371-1.605,3,3,0,0,0-.362-1.6,1.135,1.135,0,0,0-1.015-.571,1.183,1.183,0,0,0-1.062.543,3.046,3.046,0,0,0-.353,1.631m3.018-3.621h2.592V426a4.745,4.745,0,0,1-.225,1.642,2.57,2.57,0,0,1-.762,1.038,4.154,4.154,0,0,1-1.526.814,7.2,7.2,0,0,1-2.052.271,4.276,4.276,0,0,1-2.623-.719,2.375,2.375,0,0,1-.985-1.963l2.669,0v.05a.844.844,0,0,0,.331.686,1.3,1.3,0,0,0,.857.269,1.474,1.474,0,0,0,1.175-.425,2.029,2.029,0,0,0,.368-1.35v-.987a2.756,2.756,0,0,1-1.046.817,3.477,3.477,0,0,1-1.41.275,3.118,3.118,0,0,1-2.48-.99,4.239,4.239,0,0,1-.865-2.867,4.312,4.312,0,0,1,.857-2.849,2.933,2.933,0,0,1,2.383-1.019,3.547,3.547,0,0,1,1.514.3,3.218,3.218,0,0,1,1.152.946Z" transform="translate(-219.092 -405.187)" fill="#fff"/>
</svg>
