<svg xmlns="http://www.w3.org/2000/svg" width="149" height="16.209" viewBox="0 0 149 16.209">
  <g id="Group_198" data-name="Group 198" transform="translate(-759.685 -717.494)">
    <path id="Path_87" data-name="Path 87" d="M759.685,671.23v16.1h11.364v-2.8h-8.321v-13.3Z" transform="translate(0 46.377)" fill="#fff"/>
    <path id="Path_88" data-name="Path 88" d="M776.128,680.84h-5.054l2.52-5.869Zm-3.866-9.653-7.08,16.208h3.135l1.63-3.827h7.312l1.611,3.827h3.222l-7.078-16.208Z" transform="translate(8.95 46.307)" fill="#fff"/>
    <path id="Path_89" data-name="Path 89" d="M784.25,681.924l-8.245-10.642-.042-.052h-2.775v16.095h3V676.313l8.5,10.96.034.052h2.526V671.23h-3Z" transform="translate(21.986 46.378)" fill="#fff"/>
    <path id="Path_90" data-name="Path 90" d="M783.7,674.026h2.986a5.075,5.075,0,0,1,5.367,5.251v.045a5.007,5.007,0,0,1-5.367,5.206H783.7Zm2.986-2.8h-6.029v16.095h6.029c4.957,0,8.55-3.39,8.55-8.047v-.047c0-4.636-3.593-8-8.55-8" transform="translate(34.138 46.377)" fill="#fff"/>
    <path id="Path_91" data-name="Path 91" d="M795.993,678.6l-4.71-7.317-.039-.058h-3.167v16.095h3V676.311l4.752,7.122h.231l4.8-7.162v11.054h3.049V671.23h-3.169Z" transform="translate(46.227 46.378)" fill="#fff"/>
    <path id="Path_92" data-name="Path 92" d="M806.629,680.84h-5.052l2.515-5.869Zm-3.864-9.653-7.088,16.208h3.143l1.629-3.827h7.309l1.606,3.827h3.225l-7.078-16.208Z" transform="translate(58.601 46.307)" fill="#fff"/>
    <path id="Path_93" data-name="Path 93" d="M806.73,674.025h3.919c2.029,0,3.151.886,3.151,2.492v.045c0,1.53-1.23,2.515-3.122,2.515H806.73Zm10.158,2.378v-.047a4.9,4.9,0,0,0-1.354-3.509,6.5,6.5,0,0,0-4.66-1.616h-7.185v16.092h3.041V681.8h3.285l3.892,5.519h3.6l-4.313-6.05a4.836,4.836,0,0,0,3.7-4.87" transform="translate(71.647 46.379)" fill="#fff"/>
    <path id="Path_94" data-name="Path 94" d="M818.344,678.177l6.715-6.946h-3.774l-7.351,7.764V671.23h-3.041v16.095h3.041v-4.668l2.326-2.389,5.312,7,.04.055h3.7Z" transform="translate(83.376 46.378)" fill="#fff"/>
  </g>
</svg>
