<svg width="132" height="27" viewBox="0 0 132 27" fill="none" xmlns="http://www.w3.org/2000/svg">
<path d="M131.039 7.02051H127.883V23.993H131.039V7.02051Z" fill="#126DFF"/>
<path d="M129.461 3.94328C130.557 3.94328 131.445 3.06055 131.445 1.97164C131.445 0.882734 130.557 0 129.461 0C128.365 0 127.477 0.882734 127.477 1.97164C127.477 3.06055 128.365 3.94328 129.461 3.94328Z" fill="#126DFF"/>
<path d="M124.385 20.8167C124.214 20.5594 124.128 20.1412 124.128 19.5622V13.0933C124.128 11.1215 123.537 9.54337 122.219 8.4934C120.901 7.44321 119.941 6.9905 117.781 7.00116L115.306 7.00527C112.463 7.00527 109.562 9.55841 109.47 12.556H112.612C112.612 11.1375 113.78 9.97697 115.208 9.97697H116.729C117.894 9.97697 119.349 9.87511 120.173 10.5845C120.786 11.1123 120.972 11.8605 120.972 12.5114C120.972 13.0389 120.961 13.486 120.939 13.5936C120.842 13.9057 120.484 14.0617 119.866 14.0617H116.145C113.788 14.0617 111.985 14.5229 110.736 15.4449C109.488 16.3671 108.863 17.6001 108.863 19.1441C108.863 20.6881 109.435 21.9373 110.579 22.8915C111.712 23.8458 113.363 24.3229 115.532 24.3229C116.924 24.3335 118.127 24.146 119.141 23.76C120.155 23.374 120.907 22.9291 121.395 22.4251L121.58 22.2371L121.704 22.4894C122.178 23.5187 123.57 24.0225 125.274 24.0012V21.2027C124.887 21.2027 124.557 21.0741 124.385 20.8167ZM120.972 17.1497C120.928 18.3508 120.462 19.3801 119.574 20.2377C118.686 21.0956 117.321 21.5244 115.479 21.5244C114.267 21.5244 113.387 21.2832 112.84 20.8006C112.293 20.3182 112.02 19.7339 112.02 19.0476C112.02 18.3612 112.304 17.7824 112.874 17.3106C113.443 16.8496 114.534 16.5868 116.145 16.5225H120.793C120.912 16.5225 120.972 16.5762 120.972 16.6833V17.1497Z" fill="#126DFF"/>
<path d="M66.5109 10.0274H73.2167V7.04883H69.8361C66.2111 7.04883 63.3086 9.11619 63.3086 12.7109V23.9933H66.5109L66.5109 10.0274Z" fill="#126DFF"/>
<path d="M89.7407 20.8167C89.5692 20.5594 89.4837 20.1412 89.4837 19.5622V13.0933C89.4837 11.1215 88.8922 9.54337 87.5742 8.4934C86.256 7.44321 85.2969 6.9905 83.1361 7.00116L80.6612 7.00527C77.8185 7.00527 74.9179 9.55841 74.8253 12.556H77.9676C77.9676 11.1375 79.1357 9.97697 80.5634 9.97697H82.0842C83.2498 9.97697 84.7049 9.87511 85.5285 10.5845C86.1412 11.1123 86.3271 11.8605 86.3271 12.5114C86.3271 13.0389 86.3161 13.486 86.2947 13.5936C86.1971 13.9057 85.8395 14.0617 85.2219 14.0617H81.5005C79.1433 14.0617 77.3401 14.5229 76.0917 15.4449C74.8431 16.3671 74.2188 17.6001 74.2188 19.1441C74.2188 20.6881 74.7906 21.9373 75.9344 22.8915C77.0675 23.8458 78.7185 24.3229 80.8874 24.3229C82.2791 24.3335 83.4824 24.146 84.4966 23.76C85.5109 23.374 86.2621 22.9291 86.7501 22.4251L86.9359 22.2371L87.0592 22.4894C87.5337 23.5187 88.9257 24.0225 90.6295 24.0012V21.2027C90.2422 21.2027 89.9122 21.0741 89.7407 20.8167ZM86.3271 17.1497C86.2835 18.3508 85.8176 19.3801 84.9295 20.2377C84.0411 21.0956 82.6761 21.5244 80.8344 21.5244C79.6223 21.5244 78.7428 21.2832 78.1959 20.8006C77.6488 20.3182 77.3753 19.7339 77.3753 19.0476C77.3753 18.3612 77.6599 17.7824 78.2295 17.3106C78.7985 16.8496 79.889 16.5868 81.5005 16.5225H86.1484C86.2674 16.5225 86.3271 16.5762 86.3271 16.6833V17.1497Z" fill="#126DFF"/>
<path d="M60.4305 13.0694C60.4161 11.1314 59.8242 9.57834 58.5224 8.54125C57.2042 7.49106 55.6472 7.03835 53.4864 7.04901H52.2189C50.0581 7.03835 48.5011 7.49106 47.1829 8.54125C45.8649 9.59124 45.2734 11.1694 45.2734 13.1411V18.2311C45.2734 20.2029 45.8649 21.781 47.1829 22.831C48.5011 23.8812 50.0581 24.3339 52.2189 24.3232H53.4864C55.6472 24.3339 57.2042 23.8812 58.5224 22.831C59.8404 21.781 60.4318 20.2029 60.4318 18.2311H57.2837L57.2668 18.813C57.2404 19.5285 57.0894 20.2121 56.4767 20.7399C55.6531 21.4493 54.198 21.3474 53.0324 21.3474C51.8669 21.3474 50.0522 21.4493 49.2286 20.7399C48.6159 20.2121 48.43 19.4639 48.43 18.813V16.2173H60.4318L60.4305 13.0694ZM55.2015 10.0248C56.3468 10.0248 57.2753 10.9473 57.2753 12.0852V13.7766H48.43V12.0852C48.43 10.9473 49.3585 10.0248 50.5038 10.0248H55.2015Z" fill="#126DFF"/>
<path d="M107.813 7.60545H104.06L98.8164 13.7764H96.5804V0H93.4219V23.9931H96.5804V16.2026H98.8042L103.87 23.9931H107.853L101.783 14.7441L107.813 7.60545Z" fill="#126DFF"/>
<path d="M38.5388 23.9932H31.6361C29.4273 23.9932 27.6367 22.2141 27.6367 20.0196V19.8673H30.8396V19.8993C30.8396 20.5495 31.3701 21.0766 32.0246 21.0766H39.5923V16.9441H31.7463C29.4766 16.9441 27.6367 15.116 27.6367 12.861V11.2538C27.6367 8.91827 29.5424 7.0249 31.8931 7.0249H38.7958C41.0046 7.0249 42.7951 8.80394 42.7951 10.9985V11.1497H39.5924V11.1188C39.5924 10.4685 39.0619 9.94142 38.4074 9.94142H30.8396V14.0276H38.6855C40.9552 14.0276 42.7951 15.8557 42.7951 18.1107V19.7642C42.7951 22.0998 40.8895 23.9932 38.5388 23.9932Z" fill="#126DFF"/>
<g clip-path="url(#clip0_567_3614)">
<path d="M20.0453 18.5807V11.9802L16.217 6.64025L10.0226 4.60059L3.82831 6.64025L0 11.9802V18.5807L3.82831 23.9206L10.0226 25.9603L16.217 23.9206L20.0453 18.5807Z" fill="#126DFF"/>
</g>
<defs>
<clipPath id="clip0_567_3614">
<rect width="20.0453" height="21.3597" fill="white" transform="translate(0 4.60059)"/>
</clipPath>
</defs>
</svg>
